# xmcd
#
# Track frame offsets: 
#        150
#        21044
#        38396
#        53629
#        67214
#        89188
#        109318
#        127043
#        141020
#        157643
#        177754
#        193081
#        212316
#        227829
#        250209
#        267582
#        284055
#        301532
#        321733
#        335689
#
# Disc length: 4647 seconds
#
# Revision: 0
# Processed by: cddbd v1.5.2PL0 Copyright (c) Steve Scherf et al.
# Submitted via: ExactAudioCopy v1.1
#
DISCID=2a122514
DTITLE=Various Artist - 1000 Klassiekers Radio 2 Vol. 04 - CD 3
DYEAR=2012
DGENRE=Pop
TTITLE0=Leonard Cohen - Dance Me To The End Of Love
TTITLE1=Vaya Con Dios - What's A Woman
TTITLE2=Michel Delpech - Pour Un Flirt
TTITLE3=The Radios - Walking The Thin Line
TTITLE4=4 Non Blondes - What's Up
TTITLE5=Live - They Stood Up For Love
TTITLE6=Nick Cave and The Bad Seeds and Kylie Minogue - Where The Wild Ros
TTITLE6=es Grow
TTITLE7=Dean Martin - That's Amore
TTITLE8=The Righteous Brothers - You've Lost That Lovin' Feelin'
TTITLE9=Janis Joplin - Me And Bobby McGee
TTITLE10=Noordkaap - Ik Hou Van U
TTITLE11=Khaled - Aïcha
TTITLE12=The Stranglers - Golden Brown
TTITLE13=The Waterboys - The Whole Of The Moon
TTITLE14=Crowded House - Don't Dream It's Over
TTITLE15=Sharif Dean - Do You Love Me
TTITLE16=Jess and James With The J. J. Band - Move
TTITLE17=Toto - Stop Loving You
TTITLE18=The Hues Corporation - Rock The Boat
TTITLE19=Roy Orbison - In Dreams
EXTD=
EXTT0=
EXTT1=
EXTT2=
EXTT3=
EXTT4=
EXTT5=
EXTT6=
EXTT7=
EXTT8=
EXTT9=
EXTT10=
EXTT11=
EXTT12=
EXTT13=
EXTT14=
EXTT15=
EXTT16=
EXTT17=
EXTT18=
EXTT19=
PLAYORDER=
